<?xml version="1.0" encoding="utf-8"?>
<!-- Generator: Adobe Illustrator 20.1.0, SVG Export Plug-In . SVG Version: 6.00 Build 0)  -->
<svg version="1.1" id="Layer_1" xmlns="http://www.w3.org/2000/svg" xmlns:xlink="http://www.w3.org/1999/xlink" x="0px" y="0px"
	 viewBox="0 0 355.3 37" style="enable-background:new 0 0 355.3 37;" xml:space="preserve">
<style type="text/css">
	.st0{fill:#FFFFFF;}
</style>
<g>
	<path class="st0" d="M241.9,14.3c1.4-0.1,1.7-0.3,1.7-1.9v-8c0-1.6-0.4-1.7-1.7-1.8V2.6h5.6c3.7,0,7.4,2.1,7.4,6
		c0,4.1-2.8,5.9-7.1,5.9h-5.8V14.3z M252.7,8.6c0-2.7-2-5.4-5.5-5.4c-0.7,0-1.3,0.1-1.7,0.3v10.2c0.3,0.1,0.8,0.2,1.7,0.2
		C250.7,13.9,252.7,12.1,252.7,8.6z"/>
	<path class="st0" d="M256.3,10.6c0-2,1.3-4.3,3.5-4.3c2.2,0,3.4,1.6,3.4,3.2h-5.4c0,2.2,1.2,3.9,2.9,3.9c0.9,0,1.9-0.3,2.7-1.7
		l0.1,0.1c-0.6,1.6-1.8,3-3.6,3C258,14.7,256.3,12.9,256.3,10.6z M261.4,8.9c-0.1-1-0.6-2.1-1.7-2.1c-1,0-1.8,1-1.9,2.1H261.4z"/>
	<path class="st0" d="M265.7,14.3c-0.1,0-0.1,0-0.2,0c-0.2,0-0.3,0.1-0.3,0.3h-0.2v-2.8h0.1c0.2,1.4,1.2,2.6,2.5,2.6
		c0.8,0,1.3-0.5,1.3-1.3c0-0.7-0.4-1-2-1.9c-1.7-0.9-2.2-1.4-2.2-2.6c0-1.2,1-2.3,2.5-2.3c0.7,0,1.1,0.2,1.5,0.4
		c0.1,0.1,0.2,0.1,0.3,0.1c0.1,0,0.2-0.1,0.3-0.2h0.2l0.1,2.6h-0.2c-0.2-1.3-1.1-2.3-2.3-2.3c-0.7,0-1.3,0.3-1.3,1
		c0,0.7,0.4,1,2.1,1.9c1.7,0.9,2.4,1.5,2.4,2.7c0,1.4-1.3,2.4-2.8,2.4C266.8,14.7,266.4,14.5,265.7,14.3z"/>
	<path class="st0" d="M271.2,14.3c1.2-0.2,1.4-0.4,1.4-1.9V8.1c0-0.8-0.6-0.9-1.3-0.6V7.2l3-1.1v6.3c0,1.4,0.2,1.7,1.3,1.9v0.1h-4.4
		V14.3z M272.4,3.1c0-0.6,0.4-1,1-1c0.6,0,1,0.4,1,1s-0.4,1-1,1C272.8,4,272.4,3.6,272.4,3.1z"/>
	<path class="st0" d="M276.1,17c0-0.6,0.7-1.5,1.5-2.2c-0.4-0.2-0.7-0.4-0.7-1c0-0.7,0.9-1.7,1.4-2.2c-1-0.5-1.5-1.4-1.5-2.5
		c0-1.6,1.3-2.9,3-2.9c0.9,0,1.4,0.3,1.9,0.6h2.2c0.1,0,0.1,0.1,0.1,0.1v0.5c0,0.1,0,0.1-0.1,0.1h-1.4c0.2,0.3,0.5,0.8,0.5,1.6
		c0,1.6-1.2,2.9-3,2.9c-0.5,0-0.8-0.1-1.3-0.2c-0.4,0.4-0.7,0.8-0.7,1.1c0,0.4,0.4,0.6,1.1,0.6c0.7,0,1.6,0,2.2,0
		c1.5,0,2.7,0.8,2.7,2.3c0,1.6-2.3,3.2-4.5,3.2C278,18.9,276.1,18.2,276.1,17z M283.3,16.1c0-0.8-0.8-1-1.7-1
		c-0.5,0-1.6,0.1-2.1,0.1c-0.8,0-0.8-0.1-1.6-0.2c-0.4,0.5-0.6,0.9-0.6,1.3c0,1.2,1.4,1.6,2.7,1.6C282.1,17.9,283.3,17,283.3,16.1z
		 M281.4,9.6c0-1.3-0.6-3-1.7-3c-1.1,0-1.4,0.9-1.4,1.9c0,1.3,0.6,3,1.7,3C281,11.6,281.4,10.9,281.4,9.6z"/>
	<path class="st0" d="M284.6,14.3c1.2-0.2,1.4-0.4,1.4-1.9V8.3c0-1.3-0.5-1.2-1.3-0.9V7.2l2.9-1v1.7c0.7-0.7,1.7-1.6,2.9-1.6
		c1.4,0,2.1,1,2.1,2.4v3.8c0,1.4,0.2,1.7,1.3,1.9v0.1h-4.4v-0.1c1.2-0.2,1.4-0.4,1.4-1.9V9c0-1.2-0.4-1.7-1.4-1.7
		c-0.8,0-1.4,0.5-1.9,1v4.2c0,1.4,0.2,1.7,1.3,1.9v0.1h-4.3V14.3z"/>
	<path class="st0" d="M299.4,1h1.1v18.6h-1.1V1z"/>
	<path class="st0" d="M308.9,4.4v8.1c0,1.5,0.2,1.7,1.7,1.9v0.1h-4.1v-0.1c1.3-0.1,1.7-0.3,1.7-1.9V4.6c0-1.6-0.5-1.8-1.7-1.9V2.6
		h3.6l4.2,9.2l4.2-9.2h3.6v0.1c-1.3,0.1-1.7,0.3-1.7,1.9v7.9c0,1.6,0.4,1.8,1.7,1.9v0.1h-5.3v-0.1c1.2-0.1,1.7-0.3,1.7-1.9V4.3
		l-4.8,10.5L308.9,4.4z"/>
	<path class="st0" d="M322.8,10.6c0-2,1.3-4.3,3.5-4.3c2.2,0,3.4,1.6,3.4,3.2h-5.4c0,2.2,1.2,3.9,2.9,3.9c0.9,0,1.9-0.3,2.7-1.7
		l0.1,0.1c-0.6,1.6-1.8,3-3.6,3C324.5,14.7,322.8,12.9,322.8,10.6z M327.9,8.9c-0.1-1-0.6-2.1-1.7-2.1c-1,0-1.8,1-1.9,2.1H327.9z"/>
	<path class="st0" d="M337.3,13.4c-0.5,0.6-1.5,1.3-2.5,1.3c-2.2,0-3.6-1.7-3.6-3.8c0-2.7,1.7-4.6,3.9-4.6c1,0,1.5,0.3,2.1,0.9V4.2
		c0-1.2-0.6-1.2-1.4-0.9V3.1L339,2v10.5c0,1.1,0.5,1.1,1.4,0.9v0.2l-3,1.1V13.4z M337.3,12.8V8.2c-0.4-0.8-1.1-1.5-2-1.5
		c-1.4,0-2.2,1.1-2.2,3.3c0,2.2,1,3.6,2.4,3.6C336.2,13.7,336.8,13.3,337.3,12.8z"/>
	<path class="st0" d="M341,14.3c1.2-0.2,1.4-0.4,1.4-1.9V8.1c0-0.8-0.6-0.9-1.3-0.6V7.2l3-1.1v6.3c0,1.4,0.2,1.7,1.3,1.9v0.1H341
		V14.3z M342.2,3.1c0-0.6,0.4-1,1-1c0.6,0,1,0.4,1,1s-0.4,1-1,1C342.6,4,342.2,3.6,342.2,3.1z"/>
	<path class="st0" d="M346.3,12.8c0-2.1,1.8-2.4,4.7-3.6V7.8c0-0.7-0.4-1.2-1.4-1.2c-0.5,0-1.2,0.3-1.2,1c0,0.3,0.1,0.4,0.1,0.6
		c0,0.4-0.2,0.9-0.9,0.9c-0.6,0-0.9-0.4-0.9-0.9c0-1.2,1.5-2,3.3-2c1.2,0,2.7,0.2,2.7,1.9v5c0,0.6,0.3,0.7,0.7,0.7
		c0.2,0,0.5-0.2,0.8-0.6l0.2,0.1c-0.4,0.8-1,1.4-1.9,1.4c-1,0-1.4-0.6-1.4-1.4c-0.9,0.7-1.6,1.4-2.7,1.4
		C347.2,14.7,346.3,14.2,346.3,12.8z M351,12.8V9.6c-1.9,0.9-2.9,1.3-2.9,2.7c0,0.7,0.5,1.3,1.3,1.3C349.8,13.6,350.4,13.3,351,12.8
		z"/>
	<path class="st0" d="M241,34.1c1.1-0.1,1.4-0.3,1.9-1.4l4.8-10.8l5,10.8c0.5,1.1,0.7,1.2,1.8,1.4v0.1h-5.2v-0.1
		c0.9-0.1,1.4-0.2,1.4-0.8c0-0.3-0.1-0.5-0.3-0.9l-0.9-2h-4.8l-0.8,1.8c-0.1,0.3-0.3,0.8-0.3,1.1c0,0.5,0.4,0.7,1.5,0.8v0.1h-4V34.1
		z M249.2,29.7l-2.2-4.7l-2.1,4.7H249.2z"/>
	<path class="st0" d="M254.8,34.1c1.2-0.2,1.3-0.5,1.3-1.9v-4c0-1.4-0.6-1.3-1.3-1.1V27l3-1v1.5c0.7-0.9,1-1.4,2.2-1.4
		c0.8,0,1.1,0.6,1.1,1c0,0.6-0.4,1-0.9,1c-0.3,0-0.7-0.1-0.9-0.4c-0.2-0.2-0.3-0.3-0.6-0.3c-0.3,0-0.5,0.2-0.9,0.8v4.2
		c0,1.4,0.3,1.7,1.4,1.9v0.1h-4.3V34.1z"/>
	<path class="st0" d="M262.7,32.5v-5.7h-1.4v-0.3c1.3-0.4,2.6-1.6,2.9-2.8h0.1v2.5h1.9v0.5h-1.9v5c0,1.4,0.5,1.7,1.1,1.7
		c0.6,0,0.8-0.3,1.2-0.8l0.1,0.1c-0.5,0.9-1.1,1.8-2.2,1.8C263.3,34.5,262.7,33.5,262.7,32.5z"/>
	<path class="st0" d="M268.7,34.1c-0.1,0-0.1,0-0.2,0c-0.2,0-0.3,0.1-0.3,0.3H268v-2.8h0.1c0.2,1.4,1.2,2.6,2.5,2.6
		c0.8,0,1.3-0.5,1.3-1.3c0-0.7-0.4-1-2-1.9c-1.7-0.9-2.2-1.4-2.2-2.6c0-1.2,1-2.3,2.5-2.3c0.7,0,1.1,0.2,1.5,0.4
		c0.1,0.1,0.2,0.1,0.3,0.1c0.1,0,0.2-0.1,0.3-0.2h0.2l0.1,2.6h-0.2c-0.2-1.3-1.1-2.3-2.3-2.3c-0.7,0-1.3,0.3-1.3,1
		c0,0.7,0.4,1,2.1,1.9c1.7,0.9,2.4,1.5,2.4,2.7c0,1.4-1.3,2.4-2.8,2.4C269.8,34.5,269.4,34.3,268.7,34.1z"/>
</g>
<path class="st0" d="M111.5,34.3l-5.7-11.6h-6.5v11.6h-6.4V2.2h15c6.1,0,11.1,3.4,11.1,10.2c0,4.8-2.1,7.9-6.2,9.5l6.2,12.5H111.5z
	 M107.7,8.4h-8.4v8.3h8.4c3,0,4.6-1.4,4.6-4.2C112.3,9.6,110.6,8.4,107.7,8.4z"/>
<path class="st0" d="M137,8.5v25.8h-6.4V8.5h-9.2V2.2h24.9v6.3H137z"/>
<path class="st0" d="M160.4,34.8c-5.4,0-10.1-2.3-12.5-5.8l4.6-4.1c2.3,2.6,5.1,3.7,8.2,3.7c3.8,0,5.6-1.1,5.6-3.5
	c0-2.1-1.1-3-7.2-4.4c-5.9-1.4-10.1-3.3-10.1-9.6c0-5.8,5.1-9.4,11.5-9.4c5,0,8.7,1.9,11.7,5.1l-4.6,4.5c-2.1-2.1-4.4-3.3-7.3-3.3
	c-3.4,0-4.6,1.5-4.6,2.9c0,2,1.4,2.7,6.5,3.9c5.1,1.2,10.7,2.9,10.7,9.9C173.1,30.7,169.2,34.8,160.4,34.8z"/>
<path class="st0" d="M77.8,2.2h-6.2L59.2,34.3h6.9l2.5-7.2h11.8l2.5,7.2H90L77.8,2.2z M70.8,21l2.1-5.8c0.6-1.9,1.3-3.8,1.6-5
	c0.3,1.2,1,3.1,1.6,5l2.1,5.8H70.8z"/>
<path class="st0" d="M34.6,11.9c-0.9-2.2-2.2-4-3.7-5.5c-1.6-1.5-3.4-2.8-5.5-3.7c-2.1-0.9-4.4-1.4-6.9-1.4s-4.8,0.5-6.9,1.4
	C9.3,3.6,7.5,4.8,6,6.3c-1.5,1.5-2.8,3.4-3.6,5.5C1.4,14,1,16.3,1,18.7c0,2.5,0.4,4.8,1.3,6.9C3.2,27.7,4.4,29.5,6,31
	c1.5,1.5,3.4,2.8,5.5,3.6c2.2,0.9,4.5,1.3,6.9,1.3s4.8-0.4,6.9-1.3c2.1-0.9,4-2.1,5.5-3.6c1.6-1.5,2.8-3.4,3.7-5.5
	c0.9-2.1,1.4-4.4,1.4-6.9C36,16.3,35.5,14,34.6,11.9z M12,19.5c-0.2,1.6-1.2,2.8-3,2.8c-1.4,0-2.2-0.9-2.4-2.2c0-0.2,0-0.6,0-0.8
	L7,15.2h1.4L8,19.4C7.9,20.3,8.2,21,9.2,21c0.9,0,1.4-0.7,1.5-1.5l0.4-4.3h1.4L12,19.5z M18.6,17.3c-0.5-0.7-1.2-0.8-1.8-0.8
	c-1.4,0-2.2,1-2.4,2.3C14.4,20,15,21,16.4,21c0.6,0,1.3-0.2,1.9-0.9l-0.2,1.7c-0.7,0.4-1.3,0.5-1.9,0.5c-2.3,0-3.4-1.7-3.2-3.6
	c0.2-2,1.5-3.6,3.8-3.6c0.6,0,1.2,0.1,1.8,0.5L18.6,17.3z M23.5,22.2h-4l0.6-6.9h1.4L21,20.9h1.9c0.1,0,0.6,0,0.7,0
	C23.6,20.9,23.5,22.2,23.5,22.2z M28.9,22.2l-0.3-1.1H26l-0.5,1.1H24l3.7-7.2l0.1,0l2.5,7.3H28.9z"/>
<path class="st0" d="M27.6,17.5L27.6,17.5c0,0.1-0.1,0.2-0.1,0.3c0,0-0.9,2.1-0.9,2.1h1.7c0,0-0.5-1.8-0.6-2.1
	C27.6,17.7,27.6,17.6,27.6,17.5z"/>
<path class="st0" d="M200.6,9.3c0-1.1,0.2-2.1,0.6-3.1c0.4-1,1-1.8,1.7-2.6c0.7-0.7,1.6-1.3,2.6-1.7c1-0.4,2.1-0.6,3.2-0.6
	c1.1,0,2.2,0.2,3.2,0.6c1,0.4,1.8,1,2.6,1.7s1.3,1.6,1.7,2.6c0.4,1,0.6,2,0.6,3.1c0,1.1-0.2,2.2-0.6,3.2c-0.4,1-1,1.8-1.7,2.5
	c-0.7,0.7-1.6,1.3-2.6,1.7c-1,0.4-2,0.6-3.2,0.6c-1.1,0-2.2-0.2-3.2-0.6c-1-0.4-1.8-1-2.6-1.7c-0.7-0.7-1.3-1.6-1.7-2.5
	C200.8,11.5,200.6,10.5,200.6,9.3z M200.6,28c0-1.1,0.2-2.2,0.6-3.1s1-1.8,1.7-2.6c0.7-0.7,1.6-1.3,2.6-1.7c1-0.4,2.1-0.6,3.2-0.6
	c1.1,0,2.2,0.2,3.2,0.6c1,0.4,1.8,1,2.6,1.7c0.7,0.7,1.3,1.6,1.7,2.6c0.4,1,0.6,2,0.6,3.1c0,1.1-0.2,2.2-0.6,3.2
	c-0.4,1-1,1.8-1.7,2.5s-1.6,1.3-2.6,1.7c-1,0.4-2,0.6-3.2,0.6c-1.1,0-2.2-0.2-3.2-0.6c-1-0.4-1.8-1-2.6-1.7
	c-0.7-0.7-1.3-1.6-1.7-2.5C200.8,30.2,200.6,29.1,200.6,28z"/>
</svg>
