<svg id="Layer_1" data-name="Layer 1" xmlns="http://www.w3.org/2000/svg" viewBox="0 0 604 164.68"><defs><style>.cls-1{fill:#fff;}</style></defs><title>Logo2</title><path class="cls-1" d="M315.28,108.93,296.72,71.49H275.77v37.43H255V4.95H303.4c19.61,0,35.8,10.84,35.8,33,0,15.6-6.68,25.4-19.9,30.6l19.9,40.4ZM303,25.15H275.77V51.89H303c9.65,0,14.85-4.46,14.85-13.52,0-9.36-5.64-13.22-14.85-13.22"/><polygon class="cls-1" points="397.82 25.45 397.82 108.93 377.02 108.93 377.02 25.45 347.17 25.45 347.17 4.95 427.68 4.95 427.68 25.45 397.82 25.45"/><path class="cls-1" d="M473.44,110.56c-17.38,0-32.53-7.28-40.4-18.87l15-13.37c7.28,8.47,16.64,11.88,26.59,11.88,12.33,0,18.12-3.42,18.12-11.29,0-6.69-3.56-9.66-23.17-14.11C450.42,60.35,437,54.26,437,33.76c0-18.87,16.64-30.45,37.14-30.45,16.19,0,28.07,6.09,37.88,16.34l-15,14.56c-6.69-6.83-14.11-10.69-23.62-10.69-11.14,0-14.85,4.75-14.85,9.36,0,6.54,4.46,8.61,20.94,12.48s34.76,9.51,34.76,32.08c0,19.76-12.48,33.13-40.85,33.13"/><path class="cls-1" d="M206.16,4.95H186l-39.81,104h22.28l8.17-23.17h38l8.17,23.17h22.88ZM183.73,66l6.69-18.87c2.08-6.09,4.16-12.33,5.2-16.19,1,3.86,3.12,10.1,5.2,16.19L207.49,66Z"/><path class="cls-1" d="M110.6,36.33A54.82,54.82,0,0,0,98.48,18.44a59.92,59.92,0,0,0-17.92-12A55,55,0,0,0,58.35,2,57,57,0,0,0,18,18.44,53.92,53.92,0,0,0,6.28,36.33,57.72,57.72,0,0,0,2,58.35,57.22,57.22,0,0,0,6.28,80.59,53.18,53.18,0,0,0,36,110.06a57.85,57.85,0,0,0,22.39,4.31A57,57,0,0,0,98.48,98.3,55.46,55.46,0,0,0,115.1,58.35a55.17,55.17,0,0,0-4.5-22m-73,24.58c-.49,5.27-4,9.22-9.63,9.22-4.41,0-7.24-2.85-7.78-7a21.06,21.06,0,0,1-.05-2.49l1.18-13.44h4.4L24.55,60.78c-.26,2.93.89,5,3.82,5s4.58-2.13,4.84-4.73l1.25-13.86h4.4ZM59,53.8a6.5,6.5,0,0,0-5.7-2.65c-4.68,0-7.24,3.25-7.61,7.36s1.71,7.26,6.25,7.26A8.43,8.43,0,0,0,58.21,63l-.49,5.47a12.63,12.63,0,0,1-6.13,1.69c-7.44,0-10.85-5.53-10.31-11.57.57-6.45,4.93-11.8,12.45-11.8a10.3,10.3,0,0,1,5.78,1.67ZM74.81,69.65h-13l2-22.42h4.39l-1.6,18.25h6.29c.44,0,1.94,0,2.35,0,0,.22-.4,4.22-.4,4.22m17.48,0-1.06-3.56H82.77l-1.69,3.56H76.42l12-23.44h.3l8.21,23.45Z"/><path class="cls-1" d="M88,54.65h-.07a5.62,5.62,0,0,1-.33.94c-.06.14-3,6.7-3,6.7h5.54s-1.71-5.68-2-6.7a5.53,5.53,0,0,1-.17-.95"/><path class="cls-1" d="M549.74,28.18a26.68,26.68,0,0,1,2-10.18,24.93,24.93,0,0,1,5.43-8.27,26.34,26.34,0,0,1,18.63-7.59A25.41,25.41,0,0,1,586,4.21a27.7,27.7,0,0,1,8.28,5.53A26,26,0,0,1,602,28.18a25.62,25.62,0,0,1-7.68,18.46,26.36,26.36,0,0,1-18.54,7.42,26.74,26.74,0,0,1-10.34-2,24.56,24.56,0,0,1-13.71-13.61,26.46,26.46,0,0,1-2-10.27m0,60.26a26.58,26.58,0,0,1,2-10.18A25,25,0,0,1,557.15,70a26.5,26.5,0,0,1,18.63-7.59A25.21,25.21,0,0,1,586,64.47,27.39,27.39,0,0,1,594.32,70a25.93,25.93,0,0,1,0,36.91,26.26,26.26,0,0,1-18.54,7.41,27,27,0,0,1-10.34-2,24.84,24.84,0,0,1-8.28-5.43,25.22,25.22,0,0,1-5.43-8.2,26.38,26.38,0,0,1-2-10.26"/><path class="cls-1" d="M7.64,153.63H8c1.25,5.17,4.35,7.45,8.39,7.45,3,0,5.21-1.41,5.21-4.66,0-2.63-1.45-3.92-6.86-6.54-4.47-2.16-7.09-3.88-7.09-8.31,0-3.61,2.94-6.74,7.76-6.74a11.82,11.82,0,0,1,4.15.78,5.75,5.75,0,0,0,1.88.43c.9,0,1.76-.39,1.88-1.21h.35v8.7h-.35c-1.25-5.29-4.43-7.37-7.76-7.37-2.82,0-4.51,1.53-4.51,3.92,0,2.82,1.8,4.08,7,6.51,4.47,2.08,7.37,4.27,7.37,8.15,0,4.62-3.72,7.84-8.86,7.84a11,11,0,0,1-4.39-1A6.63,6.63,0,0,0,10,161a1.83,1.83,0,0,0-2,1.57H7.64Z"/><path class="cls-1" d="M28.09,153.31c0-5.25,3.61-9.88,9.52-9.88,4,0,6.27,2.43,6.27,4a1.94,1.94,0,0,1-2,1.92c-1.33,0-2-1.21-2.23-2.47s-.78-2.35-2.74-2.35c-4,0-5,4-5,7.49,0,3.65,2.12,7.52,6.07,7.52,2.59,0,4.59-1.06,6.31-4.27l.31.12c-1.29,3.6-4.31,7.13-8.35,7.13-4.31,0-8.19-4.12-8.19-9.25"/><path class="cls-1" d="M45.38,161.78c2.7-.35,3.17-.94,3.17-4.23V138.93c0-2-1.14-2.74-2.86-2.19v-.47L52.28,134V147.2c1.68-1.61,3.72-3.68,6.47-3.68,3.1,0,4.74,2.23,4.74,5.41v8.62c0,3.25.55,3.92,2.94,4.23v.31h-9.8v-.31c2.7-.35,3.14-.94,3.14-4.23v-7.8c0-2.63-1-3.88-3.14-3.88-1.8,0-3.06,1.06-4.35,2.31v9.37c0,3.25.51,4,2.86,4.23v.31H45.38Z"/><path class="cls-1" d="M67.8,153a9.33,9.33,0,1,1,9.33,9.52A9.16,9.16,0,0,1,67.8,153m14.42,1.14c0-4.11-1.76-9.56-5.84-9.56-2.7,0-4.35,2.78-4.35,7.25,0,4.12,1.76,9.6,5.84,9.6,2.7,0,4.35-2.86,4.35-7.29"/><path class="cls-1" d="M89,153a9.33,9.33,0,1,1,9.33,9.52A9.16,9.16,0,0,1,89,153m14.42,1.14c0-4.11-1.76-9.56-5.84-9.56-2.7,0-4.35,2.78-4.35,7.25,0,4.12,1.76,9.6,5.84,9.6,2.7,0,4.35-2.86,4.35-7.29"/><path class="cls-1" d="M109.46,161.78c2.7-.35,3.17-.94,3.17-4.23V139c0-2.94-1.41-2.74-3.14-2.19v-.47l6.86-2.35v23.51c0,3.25.55,3.92,2.86,4.23v.31h-9.76Z"/><path class="cls-1" d="M130.72,153a9.33,9.33,0,1,1,9.33,9.52,9.16,9.16,0,0,1-9.33-9.52m14.42,1.14c0-4.11-1.76-9.56-5.84-9.56-2.7,0-4.35,2.78-4.35,7.25,0,4.12,1.76,9.6,5.84,9.6,2.7,0,4.35-2.86,4.35-7.29"/><path class="cls-1" d="M151.88,161.7c2.35-.31,2.66-.9,2.66-4.16V145.08h-2.82v-1.21h2.82v-1.61c0-3.53,2-8.19,7.33-8.19,2.74,0,5.09,1.29,5.09,3.1a1.73,1.73,0,0,1-2,1.88c-1.1,0-2-1.1-2.63-2.19-.51-.86-.74-1.41-1.8-1.41-1.21,0-2.31.78-2.31,3.25v5.17h3.8v1.21h-3.8v12.38c0,3.29.27,3.88,3,4.23v.39h-9.37Z"/><path class="cls-1" d="M177.15,158V145.08h-3.06v-.71c2.9-1,5.84-3.64,6.47-6.23h.31v5.72h4.31v1.21h-4.31v11.25c0,3.14,1.18,3.76,2.59,3.76s1.84-.63,2.66-1.72l.31.16c-1.06,2-2.59,4-5,4-2.94,0-4.31-2.2-4.31-4.59"/><path class="cls-1" d="M186.63,161.78c2.7-.35,3.17-.94,3.17-4.23V138.93c0-2-1.14-2.74-2.86-2.19v-.47l6.59-2.23V147.2c1.69-1.61,3.72-3.68,6.46-3.68,3.1,0,4.74,2.23,4.74,5.41v8.62c0,3.25.55,3.92,2.94,4.23v.31h-9.8v-.31c2.7-.35,3.14-.94,3.14-4.23v-7.8c0-2.63-1-3.88-3.14-3.88-1.8,0-3.06,1.06-4.35,2.31v9.37c0,3.25.51,4,2.86,4.23v.31h-9.76Z"/><path class="cls-1" d="M209,153.27c0-4.59,2.94-9.76,8-9.76a7.28,7.28,0,0,1,7.72,7.29H212.5c0,5,2.74,8.74,6.43,8.74a6.35,6.35,0,0,0,6.07-3.8l.31.12c-1.29,3.61-4.12,6.7-8.15,6.7-4.31,0-8.11-4.16-8.11-9.29m11.48-3.76c-.24-2.19-1.25-4.78-3.72-4.78-2.31,0-4,2.27-4.23,4.78Z"/><path class="cls-1" d="M235.71,161.78c2.51-.24,3.14-.67,4.23-3.1l10.9-24.38,11.25,24.41c1.14,2.43,1.49,2.71,4.11,3.06v.31H254.48v-.31c2-.12,3.1-.43,3.1-1.84a5.25,5.25,0,0,0-.63-2.12l-2.12-4.59H244l-1.8,4.16a7.74,7.74,0,0,0-.78,2.51c0,1.22.86,1.69,3.29,1.88v.31h-9Zm18.5-9.92-4.9-10.58-4.66,10.58Z"/><path class="cls-1" d="M265.06,161.78c2.71-.35,2.86-1,2.86-4.31v-8.9c0-3.06-1.25-3-3-2.47v-.47l6.7-2.31v3.37c1.49-2,2.23-3.25,4.94-3.25a2.34,2.34,0,0,1,2.55,2.2,2,2,0,0,1-2.08,2.19,2.69,2.69,0,0,1-2.08-1,1.6,1.6,0,0,0-1.25-.59c-.67,0-1.18.55-2.08,1.84v9.44c0,3.25.71,3.92,3.06,4.23v.31h-9.64Z"/><path class="cls-1" d="M283,158V145.08H280v-.71c2.9-1,5.84-3.64,6.47-6.23h.31v5.72H291v1.21h-4.31v11.25c0,3.14,1.18,3.76,2.59,3.76s1.84-.63,2.66-1.72l.31.16c-1.06,2-2.59,4-5,4-2.94,0-4.31-2.2-4.31-4.59"/><path class="cls-1" d="M295.63,161.58a.93.93,0,0,0-.47-.08.77.77,0,0,0-.78.59H294V155.7h.31c.47,3.06,2.78,5.84,5.68,5.84a2.81,2.81,0,0,0,3-2.86c0-1.57-.86-2.35-4.47-4.23-3.8-2-4.9-3.17-4.9-5.92s2.23-5.1,5.64-5.1a7.22,7.22,0,0,1,3.37.82,1.13,1.13,0,0,0,.59.12.72.72,0,0,0,.67-.47h.39l.31,5.76h-.43c-.55-2.9-2.43-5.17-5.17-5.17-1.57,0-2.9.7-2.9,2.27s.9,2.35,4.62,4.35c3.88,2.08,5.33,3.29,5.33,6.07,0,3.25-2.94,5.37-6.31,5.37a10.35,10.35,0,0,1-4.08-1"/><path class="cls-1" d="M319.22,158.37c0-4.62,4-5.41,10.58-8.19V147c0-1.53-1-2.71-3.06-2.71-1.14,0-2.74.75-2.74,2.27,0,.63.12.86.12,1.45a2.06,2.06,0,0,1-4.11,0c0-2.7,3.33-4.55,7.37-4.55,2.63,0,6.19.47,6.19,4.23V159c0,1.33.71,1.61,1.49,1.61.55,0,1.21-.51,1.72-1.41l.43.24c-.82,1.8-2.27,3.21-4.23,3.21-2.35,0-3.17-1.29-3.17-3.21-2,1.64-3.65,3.21-6.15,3.21-2.31,0-4.43-1.14-4.43-4.27m10.58,0v-7.21c-4.23,2-6.62,2.86-6.62,6a2.91,2.91,0,0,0,3,2.94c.94,0,2.31-.82,3.61-1.76"/><path class="cls-1" d="M337,161.78c2.71-.35,3.18-.94,3.18-4.23v-9.33c0-2.82-1.14-2.66-2.86-2.12v-.47l6.58-2.23v3.8c1.68-1.61,3.72-3.68,6.47-3.68,3.1,0,4.74,2.23,4.74,5.41v8.62c0,3.25.55,3.92,2.94,4.23v.31h-9.8v-.31c2.71-.35,3.14-.94,3.14-4.23v-7.8c0-2.63-1-3.88-3.14-3.88-1.8,0-3.06,1.06-4.35,2.31v9.37c0,3.25.51,3.92,2.86,4.23v.31H337Z"/><path class="cls-1" d="M373.26,159.54c-1.18,1.37-3.29,3-5.53,3-5.06,0-8.11-3.76-8.11-8.62,0-6.19,3.72-10.43,8.86-10.43a5.91,5.91,0,0,1,4.78,2v-6.58c0-2.63-1.45-2.66-3.17-2v-.47l7-2.39V157.7c0,2.51,1.18,2.59,3.06,2v.47l-6.86,2.47Zm0-1.25V147.94c-1-1.72-2.55-3.29-4.51-3.29-3.25,0-4.9,2.55-4.9,7.41,0,5,2.16,8.15,5.49,8.15a5.53,5.53,0,0,0,3.92-1.92"/><path class="cls-1" d="M389.19,161.78c2.51-.24,3.14-.67,4.23-3.1l10.89-24.38,11.25,24.41c1.14,2.43,1.49,2.71,4.11,3.06v.31H408v-.31c2-.12,3.1-.43,3.1-1.84a5.26,5.26,0,0,0-.63-2.12l-2.12-4.59H397.5l-1.8,4.16a7.73,7.73,0,0,0-.78,2.51c0,1.22.86,1.69,3.29,1.88v.31h-9Zm18.5-9.92-4.9-10.58-4.66,10.58Z"/><path class="cls-1" d="M419.45,161.78c2.7-.35,2.86-1,2.86-4.31v-8.9c0-3.06-1.25-3-3-2.47v-.47l6.7-2.31v3.37c1.49-2,2.23-3.25,4.94-3.25a2.33,2.33,0,0,1,2.55,2.2,2,2,0,0,1-2.08,2.19,2.69,2.69,0,0,1-2.08-1,1.6,1.6,0,0,0-1.25-.59c-.67,0-1.18.55-2.08,1.84v9.44c0,3.25.7,3.92,3.06,4.23v.31h-9.64Z"/><path class="cls-1" d="M433.64,153.31c0-5.25,3.61-9.88,9.52-9.88,4,0,6.27,2.43,6.27,4a1.94,1.94,0,0,1-2,1.92c-1.33,0-2-1.21-2.23-2.47s-.78-2.35-2.74-2.35c-4,0-5,4-5,7.49,0,3.65,2.12,7.52,6.07,7.52,2.59,0,4.59-1.06,6.31-4.27l.31.12c-1.29,3.6-4.31,7.13-8.35,7.13-4.31,0-8.19-4.12-8.19-9.25"/><path class="cls-1" d="M450.92,161.78c2.71-.35,3.18-.94,3.18-4.23V138.93c0-2-1.14-2.74-2.86-2.19v-.47l6.58-2.23V147.2c1.69-1.61,3.72-3.68,6.47-3.68,3.1,0,4.74,2.23,4.74,5.41v8.62c0,3.25.55,3.92,2.94,4.23v.31h-9.8v-.31c2.71-.35,3.14-.94,3.14-4.23v-7.8c0-2.63-1-3.88-3.14-3.88-1.8,0-3.06,1.06-4.35,2.31v9.37c0,3.25.51,4,2.86,4.23v.31h-9.76Z"/><path class="cls-1" d="M472.71,161.78c2.71-.35,3.25-.94,3.25-4.23v-9.84c0-1.8-1.25-2-3-1.45v-.47l6.74-2.39v14.15c0,3.25.55,3.92,2.86,4.23v.31h-9.84Zm2.86-25.43a2.16,2.16,0,1,1,2.16,2.16,2.08,2.08,0,0,1-2.16-2.16"/><path class="cls-1" d="M486.08,158V145.08H483v-.71c2.9-1,5.84-3.64,6.47-6.23h.31v5.72h4.31v1.21H489.8v11.25c0,3.14,1.18,3.76,2.59,3.76s1.84-.63,2.66-1.72l.31.16c-1.06,2-2.59,4-5,4-2.94,0-4.31-2.2-4.31-4.59"/><path class="cls-1" d="M496.58,153.27c0-4.59,2.94-9.76,8-9.76a7.28,7.28,0,0,1,7.72,7.29H500c0,5,2.74,8.74,6.43,8.74a6.35,6.35,0,0,0,6.07-3.8l.31.12c-1.29,3.61-4.11,6.7-8.15,6.7-4.31,0-8.11-4.16-8.11-9.29m11.48-3.76c-.24-2.19-1.26-4.78-3.72-4.78-2.31,0-4,2.27-4.23,4.78Z"/><path class="cls-1" d="M514.8,153.31c0-5.25,3.61-9.88,9.52-9.88,4,0,6.27,2.43,6.27,4a1.94,1.94,0,0,1-2,1.92c-1.33,0-2-1.21-2.23-2.47s-.78-2.35-2.74-2.35c-4,0-5,4-5,7.49,0,3.65,2.12,7.52,6.07,7.52,2.59,0,4.59-1.06,6.31-4.27l.31.12C530,159,527,162.56,523,162.56c-4.31,0-8.19-4.12-8.19-9.25"/><path class="cls-1" d="M535.18,158V145.08h-3.06v-.71c2.9-1,5.84-3.64,6.47-6.23h.31v5.72h4.31v1.21h-4.31v11.25c0,3.14,1.18,3.76,2.59,3.76s1.84-.63,2.66-1.72l.31.16c-1.06,2-2.59,4-5,4-2.94,0-4.31-2.2-4.31-4.59"/><path class="cls-1" d="M558.7,158.84c-1.69,1.61-3.72,3.72-6.47,3.72-3.1,0-4.82-2.23-4.82-5.41v-8.62c0-3.61-.55-3.92-2.94-4.23V144h6.74v12.34c0,2.27,1.14,3.88,3.14,3.88,1.8,0,3.06-1.06,4.35-2.31v-9.37c0-3.61-.51-3.92-2.86-4.23V144h6.58v13.83c0,2.74,1.33,2.51,3.06,2v.47l-6.78,2.43Z"/><path class="cls-1" d="M566,161.78c2.71-.35,2.86-1,2.86-4.31v-8.9c0-3.06-1.26-3-3-2.47v-.47l6.7-2.31v3.37c1.49-2,2.23-3.25,4.94-3.25a2.33,2.33,0,0,1,2.55,2.2,2,2,0,0,1-2.08,2.19,2.69,2.69,0,0,1-2.08-1,1.6,1.6,0,0,0-1.25-.59c-.67,0-1.18.55-2.08,1.84v9.44c0,3.25.71,3.92,3.06,4.23v.31H566Z"/><path class="cls-1" d="M580.18,153.27c0-4.59,2.94-9.76,8-9.76s7.72,3.61,7.72,7.29H583.63c0,5,2.74,8.74,6.43,8.74a6.35,6.35,0,0,0,6.07-3.8l.31.12c-1.29,3.61-4.11,6.7-8.15,6.7-4.31,0-8.11-4.16-8.11-9.29m11.48-3.76c-.24-2.19-1.25-4.78-3.72-4.78-2.31,0-4,2.27-4.23,4.78Z"/></svg>